<?xml version="1.0" encoding="utf-8"?>
<!-- Generator: Adobe Illustrator 25.3.1, SVG Export Plug-In . SVG Version: 6.00 Build 0)  -->
<svg version="1.1" id="Layer_1" xmlns="http://www.w3.org/2000/svg" xmlns:xlink="http://www.w3.org/1999/xlink" x="0px" y="0px"
	 viewBox="0 0 200 200" style="enable-background:new 0 0 200 200;" xml:space="preserve">
<style type="text/css">
	.st0{fill:#88A7E5;}
	.st1{fill:#FFFFFF;stroke:#000000;stroke-width:5;stroke-miterlimit:10;}
	.st2{fill:none;stroke:#000000;stroke-width:5;stroke-miterlimit:10;}
	.st3{fill:#FCFFBC;stroke:#000000;stroke-width:5;stroke-miterlimit:10;}
</style>
<path class="st0" d="M169.75,162.96c18.6-17.75,19.18-91.3-7.82-131.3s-93-16-127,20c-21.32,22.58-23,70,6,94
	C92.82,188.6,122.93,207.66,169.75,162.96z"/>
<path class="st1" d="M85.27,90.1h48.45c0,0,15.21,1.13,15.21-17.46c0-18.03-18.03-18.03-18.03-18.03s1.13-16.9-23.66-16.9
	c-19.15,0-21.97,21.97-21.97,21.97s-16.34-0.56-16.34,15.21S85.27,90.1,85.27,90.1z"/>
<circle class="st2" cx="38.43" cy="33.16" r="1"/>
<circle class="st2" cx="54.43" cy="21.16" r="1"/>
<path class="st3" d="M165.89,121.73h-49.98c0.23-6.77,4.17-10.57,8.99-10.57h32C161.72,111.16,165.66,114.96,165.89,121.73z"/>
<path class="st1" d="M165.9,120.16v17c0,4.97-4.03,9-9,9h-32c-4.97,0-9-4.03-9-9v-17c0-0.14,0-0.29,0.01,1.57h49.98
	C165.9,119.87,165.9,120.02,165.9,120.16z"/>
<line class="st2" x1="165.9" y1="119.73" x2="165.89" y2="119.73"/>
<line class="st2" x1="115.91" y1="119.73" x2="115.9" y2="119.73"/>
<path class="st3" d="M101.71,122.73H51.73c0.23-7.77,4.17-11.57,8.99-11.57h32C97.55,111.16,101.48,114.96,101.71,122.73z"/>
<path class="st1" d="M101.72,120.16v17c0,4.97-4.02,9-9,9h-32c-4.97,0-9-4.03-9-9v-17c0-0.14,0-0.29,0.01,2.57h49.98
	C101.72,119.87,101.72,120.02,101.72,120.16z"/>
<line class="st2" x1="101.72" y1="119.73" x2="101.71" y2="119.73"/>
<line class="st2" x1="48.73" y1="124.73" x2="48.72" y2="124.73"/>
<polyline class="st2" points="116.93,90.52 116.93,100.66 138.43,100.66 138.43,111.35 "/>
<polyline class="st2" points="98.43,90.52 98.43,100.66 76.93,100.66 76.93,111.35 "/>
</svg>
