<?xml version="1.0" encoding="utf-8"?>
<!-- Generator: Adobe Illustrator 25.3.1, SVG Export Plug-In . SVG Version: 6.00 Build 0)  -->
<svg version="1.1" id="Layer_1" xmlns="http://www.w3.org/2000/svg" xmlns:xlink="http://www.w3.org/1999/xlink" x="0px" y="0px"
	 viewBox="0 0 200 200" style="enable-background:new 0 0 200 200;" xml:space="preserve">
<style type="text/css">
	.st0{fill:#88A7E5;}
	.st1{fill:#FFFFFF;stroke:#000000;stroke-width:6;stroke-miterlimit:10;}
	.st2{fill:#FCFFBC;stroke:#000000;stroke-width:6;stroke-miterlimit:10;}
	.st3{fill:none;stroke:#000000;stroke-width:5;stroke-miterlimit:10;}
</style>
<path class="st0" d="M129.74,25.18c58.5,22,74.5,78,36.81,96.93c-71.82,36.06-18.31,64.07-83.31,59.07s-86.63-22.43-70.78-59.07
	c10.78-24.93,3.2-55.85,21.78-76.93C56.77,19.63,97.68,13.13,129.74,25.18z"/>
<circle class="st1" cx="93.74" cy="96.68" r="50"/>
<path class="st2" d="M131.24,96.68h-75c0,0-0.5-38,37.5-37.5S131.24,96.68,131.24,96.68z"/>
<circle class="st1" cx="93.74" cy="99.68" r="5"/>
<line class="st1" x1="97.2" y1="96.08" x2="115.74" y2="75.68"/>
<circle class="st3" cx="152.24" cy="161.18" r="1"/>
<circle class="st3" cx="159.24" cy="146.18" r="1"/>
</svg>
