<?xml version="1.0" encoding="UTF-8"?>
<svg width="1627px" height="226px" viewBox="0 0 1627 226" version="1.1" xmlns="http://www.w3.org/2000/svg" xmlns:xlink="http://www.w3.org/1999/xlink">
    <title>Group 2</title>
    <g id="Page-1" stroke="none" stroke-width="1" fill="none" fill-rule="evenodd">
        <g id="Group-2" transform="translate(2.000000, 0.783697)" stroke="#EBEBEB" stroke-width="3">
            <polyline id="Path-2" points="7.70225137 0.661337401 7.70225137 58.4806166 260 58.4806166 260 29.570977 450.014852 29.570977 450.014852 124.216303 638.701704 124.216303 638.701704 197.228195 726 197.228195"></polyline>
            <polyline id="Path-3" points="209.278405 12 30.965798 12 30.965798 36.0121164 238.491775 36.0121164 238.491775 5 474.063601 5 474.063601 56.5704981 682.945358 56.5704981 682.945358 5 940.623682 5 940.623682 147.685458 870.051961 147.685458"></polyline>
            <polyline id="Path-5" points="503 80.7163035 503 100.471859 704 100.471859 704 27.5975713 919.658174 27.5975713 919.658174 52.8022729 819.689046 52.8022729 819.689046 138.216303"></polyline>
            <polyline id="Path-6" points="711 222.216303 621.382438 222.216303 381.758798 222.216303 381.758798 102.471859 126.125057 102.471859 126.125057 162.344081 304.864753 162.344081 304.864753 204.228195 129 204.228195"></polyline>
            <polyline id="Path-7" points="402.96459 197.228195 612.14445 197.228195 612.14445 147.685458 428.24522 147.685458 428.24522 55.4091571 283.20438 55.4091571 283.20438 81.342729 4.70225137 81.342729"></polyline>
            <polyline id="Path-8" points="301.819516 78.342729 406.488165 78.342729 406.488165 175.297146 590.681983 175.297146"></polyline>
            <polyline id="Path-8" points="21.965798 162.344081 21.965798 124.216303 41.3075548 124.216303 41.3075548 182.17072 0 182.17072 0 103.216303 103.668649 103.216303 103.668649 182.17072 288.862467 182.17072"></polyline>
            <polyline id="Path-9" points="144.431233 124.216303 144.431233 142.693512 326.315209 142.693512 326.315209 222.216303 359.351126 222.216303 359.351126 122.819937 166.81961 122.819937"></polyline>
            <polyline id="Path-10" points="83.7573066 183.17072 83.7573066 123.819937 62.171026 123.819937 62.171026 223.216303 308.423351 223.216303"></polyline>
            <polyline id="Path-11" points="493.834517 0.661337401 493.834517 36.0648254 661.87313 36.0648254 661.87313 5 601.974717 5 601.974717 17.9160644 514.073614 17.9160644 514.073614 5 514.073614 0.661337401"></polyline>
            <polyline id="Path-4" points="723.334194 52.4222362 795.485779 52.4222362 795.485779 147.685458 744.717022 174.736241 661.87313 174.736241 661.87313 124.216303 704.372531 124.216303 704.372531 152.899937 684.075126 152.899937 684.075126 141.511247"></polyline>
            <polyline id="Path-12" points="750.802906 126.819937 750.802906 107.744804 772.605813 107.744804 772.605813 76.342729 726 76.342729 726 151.490272 763.045427 151.490272"></polyline>
            <polyline id="Path-12" points="862.891152 130.318676 862.891152 99.4093604 897.789886 99.4093604 897.789886 126.318676 919.393109 126.318676 919.393109 76.342729 844 76.342729 844 151.490272"></polyline>
            <polyline id="Path-13" points="874.696554 194.150757 985.984484 194.150757 985.984484 55.4091571 1396.01162 55.4091571 1396.01162 124.216303 1533.6074 124.216303 1533.6074 220.727415 1625 220.727415"></polyline>
            <polyline id="Path-13" points="896.696554 216.150757 1008.98448 216.150757 1008.98448 77.4091571 1069 77.4091571 1069 146.216303 1093.77195 146.216303 1093.77195 77.4091571 1271.84828 76.342729 1271.84828 220.150757 1508.9121 220.150757 1508.9121 151.490272 1367.89271 151.490272 1367.89271 116.216303"></polyline>
            <polyline id="Path-14" points="881.696554 171.736241 963.344547 171.736241 963.344547 5 1203.23842 5 1203.23842 29.0648254 1119.23206 29.0648254"></polyline>
            <polyline id="Path-15" points="1342.29924 148.246743 1342.29924 118.906937 1295.8584 118.906937 1295.8584 147.685458 1295.8584 197.228195 1484.13144 197.228195 1484.13144 175.297146 1433.19957 175.297146"></polyline>
            <polyline id="Path-16" points="1320 141.471859 1320 175.297146 1417.2905 175.297146"></polyline>
            <line x1="519.5" y1="80.7163035" x2="688" y2="80.2163035" id="Path-17"></line>
            <polyline id="Path-18" points="1039.3488 102.471859 1039.3488 171.736241 1192.80298 171.736241 1192.80298 125.916501 1233.3488 125.916501"></polyline>
            <polyline id="Path-19" points="1119.85756 99.471859 1119.85756 145.779957 1150.60572 145.779957 1150.60572 102.471859 1249.84828 102.471859 1249.84828 220.727415 1085.82672 220.727415 1085.82672 197.228195 1227.3488 197.228195 1227.3488 145.779957"></polyline>
            <polyline id="Path-20" points="1223.73537 5 1223.73537 27.5975713 1278.94809 27.5975713 1278.94809 5 1498.62305 5 1498.62305 80.3681207 1591.51243 80.3681207 1591.51243 5 1625 5"></polyline>
            <polyline id="Path-21" points="1304.19466 27.5975713 1470.82997 27.5975713 1470.82997 55.4091571 1424.36768 55.4091571 1424.36768 102.471859 1557.10133 102.471859 1557.10133 151.490272 1623.35603 151.490272"></polyline>
            <polyline id="Path-22" points="1522.65742 0 1522.65742 55.4091571 1568.87644 55.4091571 1568.87644 33.2045785 1547.76693 33.2045785 1547.76693 -6.15165219e-15"></polyline>
            <polyline id="Path-23" points="1584.02784 97.471859 1584.02784 128.384502 1618.35603 128.384502 1618.35603 24.5975713"></polyline>
            <polyline id="Path-24" points="1551.87644 173.736241 1618.35603 173.736241 1618.35603 199.228195 1551.87644 199.228195"></polyline>
        </g>
    </g>
</svg>