<?xml version="1.0" encoding="UTF-8"?>
<svg width="161px" height="168px" viewBox="0 0 161 168" version="1.1" xmlns="http://www.w3.org/2000/svg" xmlns:xlink="http://www.w3.org/1999/xlink">
    <title>Group</title>
    <g id="Page-1" stroke="none" stroke-width="1" fill="none" fill-rule="evenodd">
        <g id="Group" transform="translate(2.000000, 0.000000)" stroke="#EBEBEB" stroke-width="3">
            <path d="M28.6970935,-2.84217094e-14 C28.6970935,54.9396863 19.1313957,110.760138 0,167.461354" id="Path-25"></path>
            <path d="M48.6970935,-2.84217094e-14 C48.6970935,54.9396863 42.464729,110.760138 30,167.461354" id="Path-25"></path>
            <path d="M68.6970935,-2.84217094e-14 C68.6970935,54.9396863 65.7980624,110.760138 60,167.461354" id="Path-25"></path>
            <path d="M96.6970935,-2.84217094e-14 C96.6970935,54.9396863 93.7980624,110.760138 88,167.461354" id="Path-25" transform="translate(92.348547, 83.730677) scale(-1, 1) translate(-92.348547, -83.730677) "></path>
            <path d="M125.697094,-2.84217094e-14 C125.697094,54.9396863 119.464729,110.760138 107,167.461354" id="Path-25" transform="translate(116.348547, 83.730677) scale(-1, 1) translate(-116.348547, -83.730677) "></path>
            <path d="M156.697094,-2.84217094e-14 C156.697094,54.9396863 147.131396,110.760138 128,167.461354" id="Path-25" transform="translate(142.348547, 83.730677) scale(-1, 1) translate(-142.348547, -83.730677) "></path>
        </g>
    </g>
</svg>