<?xml version="1.0" encoding="utf-8"?>
<!-- Generator: Adobe Illustrator 25.3.1, SVG Export Plug-In . SVG Version: 6.00 Build 0)  -->
<svg version="1.1" id="Layer_1" xmlns="http://www.w3.org/2000/svg" xmlns:xlink="http://www.w3.org/1999/xlink" x="0px" y="0px"
	 viewBox="0 0 200 200" style="enable-background:new 0 0 200 200;" xml:space="preserve">
<style type="text/css">
	.st0{fill:#88A7E5;}
	.st1{fill:#FFFFFF;stroke:#000000;stroke-width:5;stroke-miterlimit:10;}
	.st2{fill:none;stroke:#000000;stroke-width:5;stroke-miterlimit:10;}
	.st3{fill:#FCFFBC;stroke:#000000;stroke-width:5;stroke-miterlimit:10;}
</style>
<path class="st0" d="M16.11,123.26c-2.11-19.2,2.21-38.55,12.34-55c17.32-28.12,48.5-67.86,77.41-48.36c43,29,69.8,77.2,73,100
	c8,57-111,79-139,60C24.39,169.41,18.39,143.95,16.11,123.26z"/>
<path d="M45.86,64.91"/>
<path class="st1" d="M116.86,101.91h-52c-4.97,0-9-4.03-9-9v-31c0-4.97,4.03-9,9-9h52c4.97,0,9,4.03,9,9v31
	C125.86,97.88,121.84,101.91,116.86,101.91z"/>
<circle class="st2" cx="162.36" cy="56.41" r="1"/>
<circle class="st2" cx="148.36" cy="41.41" r="1"/>
<circle class="st2" cx="90.36" cy="121.53" r="10"/>
<path class="st3" d="M105.36,155.03c0,9.66-29,9.66-29,0c0-9.66,6.49-17.5,14.5-17.5S105.36,145.37,105.36,155.03z"/>
<line class="st1" x1="55.86" y1="64.91" x2="125.86" y2="64.91"/>
<circle class="st2" cx="130.36" cy="121.53" r="10"/>
<path class="st3" d="M145.36,155.03c0,9.66-29,9.66-29,0c0-9.66,6.49-17.5,14.5-17.5C138.87,137.53,145.36,145.37,145.36,155.03z"/>
<circle class="st2" cx="50.36" cy="121.53" r="10"/>
<path class="st3" d="M65.36,155.03c0,9.66-29,9.66-29,0c0-9.66,6.49-17.5,14.5-17.5S65.36,145.37,65.36,155.03z"/>
</svg>
