<?xml version="1.0" encoding="utf-8"?>
<!-- Generator: Adobe Illustrator 25.3.1, SVG Export Plug-In . SVG Version: 6.00 Build 0)  -->
<svg version="1.1" id="Layer_1" xmlns="http://www.w3.org/2000/svg" xmlns:xlink="http://www.w3.org/1999/xlink" x="0px" y="0px"
	 viewBox="0 0 200 200" style="enable-background:new 0 0 200 200;" xml:space="preserve">
<style type="text/css">
	.st0{fill:#88A7E5;}
	.st1{fill:#FFFFFF;stroke:#000000;stroke-width:5;stroke-miterlimit:10;}
	.st2{fill:#FCFFBC;stroke:#000000;stroke-width:5;stroke-miterlimit:10;}
	.st3{fill:none;stroke:#000000;stroke-width:5;stroke-miterlimit:10;}
</style>
<path class="st0" d="M637.5,104.5c32.4,20.96,32.59,130.86-9,117c-36-12-43,49-105,16c-39.32-20.93-27.01-77.23,0-118
	C544.51,87.79,603.5,82.5,637.5,104.5z"/>
<path class="st1" d="M581.5,117.63l-40,16.12v39.46c0,0,6.5,29.82,40,43.16c33.5-13.34,40-43.16,40-43.16v-39.46L581.5,117.63z"/>
<path class="st1" d="M573.91,162l0.03-14.06c0.03-3.84,3.16-6.94,7-6.94h2.07c3.86,0,6.99,3.12,7,6.98l0.01,14.02"/>
<path class="st2" d="M595,186h-26c-2.76,0-5-2.24-5-5v-14c0-2.76,2.24-5,5-5h26c2.76,0,5,2.24,5,5v14C600,183.76,597.76,186,595,186
	z"/>
<circle class="st3" cx="604.5" cy="243.5" r="1"/>
<circle class="st3" cx="619.5" cy="233.5" r="1"/>
<circle class="st3" cx="619.5" cy="233.5" r="1"/>
<path class="st0" d="M160.8,27.66c32.4,20.96,32.59,130.86-9,117c-36-12-43,49-105,16c-39.32-20.93-27.01-77.23,0-118
	C67.8,10.95,126.8,5.66,160.8,27.66z"/>
<path class="st1" d="M104.8,40.79l-40,16.12v39.46c0,0,6.5,29.82,40,43.16c33.5-13.34,40-43.16,40-43.16V56.91L104.8,40.79z"/>
<path class="st1" d="M97.21,85.16l0.03-14.06c0.03-3.84,3.16-6.94,7-6.94h2.07c3.86,0,6.99,3.12,7,6.98l0.01,14.02"/>
<path class="st2" d="M118.3,109.16h-26c-2.76,0-5-2.24-5-5v-14c0-2.76,2.24-5,5-5h26c2.76,0,5,2.24,5,5v14
	C123.3,106.92,121.06,109.16,118.3,109.16z"/>
<circle class="st3" cx="127.8" cy="166.66" r="1"/>
<circle class="st3" cx="142.8" cy="156.66" r="1"/>
<circle class="st3" cx="142.8" cy="156.66" r="1"/>
</svg>
