<svg width="198" height="78" xmlns="http://www.w3.org/2000/svg">
 <defs>
  <linearGradient y2="0.5" x2="1" y1="0.5" x1="0.00001" id="paint0_linear">
   <stop stop-color="#F6BF1D"/>
   <stop stop-color="#F8D91C" offset="1"/>
  </linearGradient>
 </defs>
 <g>
  <title>background</title>
  <rect fill="none" id="canvas_background" height="80" width="200" y="-1" x="-1"/>
 </g>
 <g>
  <title>Layer 1</title>
  <path id="svg_1" fill="url(#paint0_linear)" d="m45.0154,42.45256c-0.001,-3.2229 -0.971,-6.3732 -2.787,-9.0522c-1.815,-2.679 -4.395,-4.7665 -7.413,-5.9983c-3.018,-1.2318 -6.339,-1.5526 -9.542,-0.9218c-3.202,0.6308 -6.144,2.1848 -8.451,4.4654c-2.308,2.2807 -3.878,5.1855 -4.513,8.347c-0.634,3.1615 -0.304,6.4377 0.949,9.4141c1.252,2.9764 3.372,5.5193 6.089,7.3069c2.718,1.7877 5.911,2.7398 9.177,2.7359c4.377,-0.0051 8.572,-1.7245 11.664,-4.7804c3.092,-3.0559 4.828,-7.1982 4.827,-11.5166l0,0z"/>
  <path id="svg_2" fill="#0192CD" d="m49.5294,20.24656c0,-2.6136 -0.785,-5.16854 -2.257,-7.34163c-1.472,-2.17309 -3.563,-3.86672 -6.01,-4.8667c-2.447,-0.99997 -5.14,-1.26136 -7.737,-0.75111c-2.598,0.51025 -4.984,1.76922 -6.856,3.61767c-1.873,1.84846 -3.148,4.20338 -3.664,6.76687c-0.516,2.5636 -0.25,5.2206 0.764,7.635c1.014,2.4144 2.731,4.4777 4.934,5.9291c2.203,1.4513 4.792,2.2255 7.441,2.2245c1.758,0 3.499,-0.3418 5.123,-1.0059c1.624,-0.6641 3.1,-1.6375 4.343,-2.8646c1.243,-1.227 2.229,-2.6837 2.901,-4.2869c0.673,-1.6031 1.019,-3.3213 1.018,-5.0563l0,0z"/>
  <path id="svg_3" fill="#0F8140" d="m24.4344,26.66236c1.614,2.8685 4.252,5.042 7.4,6.0973c3.148,1.0554 6.582,0.9171 9.632,-0.3878c-1.975,-2.4749 -4.636,-4.3314 -7.659,-5.3448c-3.023,-1.0134 -6.279,-1.1401 -9.373,-0.3647l0,0z"/>
  <path id="svg_4" fill="#32AC59" d="m16.0174,39.87556c0,-1.0429 -0.314,-2.0624 -0.901,-2.9294c-0.587,-0.8671 -1.422,-1.5428 -2.398,-1.9417c-0.977,-0.3988 -2.051,-0.503 -3.088,-0.2991c-1.036,0.2038 -1.988,0.7063 -2.735,1.4441c-0.747,0.7378 -1.255,1.6776 -1.461,2.7006c-0.206,1.0229 -0.099,2.0831 0.306,3.0463c0.405,0.9632 1.091,1.7862 1.97,2.3649c0.879,0.5787 1.912,0.8871 2.969,0.8861c0.702,0 1.396,-0.1364 2.044,-0.4014c0.648,-0.2649 1.236,-0.6533 1.732,-1.1429c0.496,-0.4897 0.889,-1.0709 1.157,-1.7104c0.268,-0.6396 0.405,-1.325 0.405,-2.0171z"/>
  <path id="svg_5" fill="#348640" d="m12.1824,44.92836c0.98,-0.283 1.856,-0.8375 2.526,-1.5975c0.669,-0.76 1.104,-1.6936 1.252,-2.6901c0.148,-0.9965 0.003,-2.0139 -0.418,-2.9315c-0.421,-0.9175 -1.099,-1.6967 -1.955,-2.245c-1.052,2.1835 -1.595,4.5712 -1.592,6.9886c0,0.8286 0.062,1.6561 0.187,2.4755l0,0z"/>
  <path id="svg_6" fill="black" d="m60.71164,43.64213c0.35942,0.5708 0.90911,1.0571 1.64908,1.4588c0.76111,0.3805 1.52223,0.5708 2.28334,0.5708c1.31084,0 2.35734,-0.4651 3.13964,-1.3954c0.8034,-0.9514 1.2051,-2.1776 1.2051,-3.6787c0,-1.5011 -0.4017,-2.7273 -1.2051,-3.6787c-0.7823,-0.9514 -1.8288,-1.4271 -3.13964,-1.4271c-0.76111,0 -1.51165,0.2009 -2.25163,0.6026c-0.73997,0.4017 -1.30023,0.8985 -1.68079,1.4905l0,6.0572zm0,4.5984l-3.32987,0l0,-21.1527l3.32987,0l0,7.96c1.24738,-1.6702 2.88589,-2.5053 4.91556,-2.5053c1.9873,0 3.6153,0.74 4.8838,2.2199c1.2685,1.4588 1.9028,3.4039 1.9028,5.8352c0,2.4736 -0.6343,4.4293 -1.9028,5.8669c-1.2685,1.4377 -2.8965,2.1565 -4.8838,2.1565c-2.00853,0 -3.64704,-0.8245 -4.91556,-2.4736l0,2.0931zm22.16916,0.3805c-2.3256,0 -4.2495,-0.74 -5.7718,-2.2199c-1.5011,-1.5011 -2.2516,-3.4462 -2.2516,-5.8352c0,-2.2411 0.7294,-4.1333 2.1882,-5.6766c1.48,-1.5646 3.3405,-2.3468 5.5815,-2.3468c2.2622,0 4.0804,0.7822 5.4547,2.3468c1.3953,1.5645 2.093,3.5624 2.093,5.9937l0,0.7929l-11.829,0c0.1269,1.2051 0.6237,2.2093 1.4906,3.0127c0.8668,0.8034 1.9979,1.2051 3.3933,1.2051c0.7822,0 1.5645,-0.148 2.3467,-0.444c0.8034,-0.296 1.4694,-0.7082 1.9979,-1.2368l1.5223,2.1882c-1.5434,1.4799 -3.6153,2.2199 -6.2158,2.2199zm4.0593,-9.2919c-0.0423,-1.0571 -0.4334,-1.9979 -1.1734,-2.8225c-0.7188,-0.8245 -1.7654,-1.2368 -3.1396,-1.2368c-1.3108,0 -2.3362,0.4123 -3.0762,1.2368c-0.7399,0.8034 -1.1522,1.7442 -1.2368,2.8225l8.626,0zm11.7541,9.2919c-2.7484,0 -4.9366,-0.7928 -6.5646,-2.3785l1.5223,-2.4102c0.5708,0.592 1.3425,1.0994 2.315,1.5223c0.9725,0.4228 1.9345,0.6342 2.8859,0.6342c0.9725,0 1.7125,-0.1902 2.2199,-0.5708c0.5286,-0.3806 0.7928,-0.8774 0.7928,-1.4905c0,-0.5497 -0.3171,-0.9726 -0.9513,-1.2685c-0.6343,-0.3172 -1.406,-0.5603 -2.3151,-0.7294c-0.9091,-0.1903 -1.8182,-0.4123 -2.7273,-0.666c-0.9091,-0.2749 -1.6808,-0.7506 -2.3151,-1.4271c-0.6342,-0.6765 -0.9514,-1.5539 -0.9514,-2.6322c0,-1.3108 0.5391,-2.4102 1.6174,-3.2981c1.0782,-0.9092 2.5476,-1.3637 4.4081,-1.3637c2.3468,0 4.3341,0.7188 5.9621,2.1565l-1.3954,2.3467c-0.4863,-0.5496 -1.1311,-0.9936 -1.9345,-1.3319c-0.8034,-0.3383 -1.6702,-0.5074 -2.6005,-0.5074c-0.8668,0 -1.5645,0.1797 -2.093,0.5391c-0.5074,0.3383 -0.7612,0.7823 -0.7612,1.332c0,0.4228 0.222,0.7716 0.666,1.0465c0.4651,0.2537 1.036,0.444 1.7125,0.5708c0.6977,0.1269 1.4483,0.3066 2.2517,0.5391c0.8034,0.2115 1.5433,0.4652 2.2199,0.7612c0.6977,0.296 1.2685,0.7822 1.7125,1.4588c0.4651,0.6554 0.6977,1.4588 0.6977,2.4102c0,1.3953 -0.5603,2.537 -1.6808,3.425c-1.1206,0.8879 -2.6851,1.3319 -4.6936,1.3319zm14.3242,0c-1.2897,0 -2.2728,-0.3383 -2.9493,-1.0148c-0.6554,-0.6765 -0.9831,-1.6491 -0.9831,-2.9176l0,-8.848l-2.5371,0l0,-2.9176l2.5371,0l0,-4.1861l3.3298,0l0,4.1861l3.1079,0l0,2.9176l-3.1079,0l0,8.0235c0,0.5497 0.1269,0.9936 0.3806,1.3319c0.2537,0.3171 0.6131,0.4757 1.0782,0.4757c0.6766,0 1.1734,-0.1797 1.4906,-0.5391l0.7928,2.5053c-0.6977,0.6554 -1.7442,0.9831 -3.1396,0.9831zm13.7741,0c-2.0296,0 -3.6681,-0.8351 -4.9155,-2.5053l0,7.96l-3.3299,0l0,-21.1527l3.3299,0l0,2.0931c1.2262,-1.6491 2.8647,-2.4736 4.9155,-2.4736c2.0085,0 3.6364,0.7188 4.8838,2.1565c1.2686,1.4376 1.9028,3.3933 1.9028,5.8669c0,2.4736 -0.6342,4.4398 -1.9028,5.8986c-1.2474,1.4377 -2.8753,2.1565 -4.8838,2.1565zm-0.9831,-2.9493c1.3108,0 2.3573,-0.4757 3.1396,-1.4271c0.7823,-0.9514 1.1734,-2.1776 1.1734,-3.6787c0,-1.5011 -0.3911,-2.7168 -1.1734,-3.647c-0.7823,-0.9514 -1.8288,-1.4271 -3.1396,-1.4271c-0.7611,0 -1.5116,0.2009 -2.2516,0.6026c-0.74,0.4017 -1.3003,0.8879 -1.6808,1.4588l0,6.0572c0.3805,0.5708 0.9408,1.0571 1.6808,1.4588c0.74,0.4017 1.4905,0.6025 2.2516,0.6025zm14.4017,2.5688l-3.3299,0l0,-21.1527l3.3299,0l0,21.1527zm17.0049,0l-3.3299,0l0,-1.6491c-1.1839,1.3531 -2.833,2.0296 -4.9472,2.0296c-1.3954,0 -2.6322,-0.444 -3.7104,-1.3319c-1.0783,-0.9091 -1.6174,-2.1565 -1.6174,-3.7422c0,-1.6279 0.5286,-2.8647 1.5857,-3.7104c1.0782,-0.8457 2.3256,-1.2685 3.7421,-1.2685c2.1776,0 3.8267,0.6554 4.9472,1.9662l0,-2.2834c0,-0.8879 -0.3277,-1.5856 -0.9831,-2.093c-0.6554,-0.5074 -1.5222,-0.7611 -2.6004,-0.7611c-1.7125,0 -3.2242,0.6448 -4.535,1.9345l-1.3637,-2.3151c1.7337,-1.6491 3.8796,-2.4736 6.4378,-2.4736c1.8816,0 3.4144,0.444 4.5983,1.3319c1.184,0.888 1.776,2.294 1.776,4.2179l0,10.1482zm-6.9769,-1.9028c1.6703,0 2.8859,-0.5286 3.647,-1.5857l0,-2.315c-0.7611,-1.0571 -1.9767,-1.5857 -3.647,-1.5857c-0.9514,0 -1.7336,0.2537 -2.3467,0.7611c-0.6132,0.5074 -0.9197,1.1734 -0.9197,1.998c0,0.8245 0.3065,1.4905 0.9197,1.9979c0.6131,0.4862 1.3953,0.7294 2.3467,0.7294zm18.2709,2.2833c-2.326,0 -4.228,-0.7505 -5.708,-2.2516c-1.48,-1.5222 -2.22,-3.4567 -2.22,-5.8035c0,-2.3256 0.74,-4.239 2.22,-5.7401c1.48,-1.5222 3.382,-2.2833 5.708,-2.2833c2.558,0 4.514,0.9091 5.867,2.7273l-2.188,2.0297c-0.846,-1.2051 -2.019,-1.8077 -3.52,-1.8077c-1.396,0 -2.516,0.4757 -3.362,1.4271c-0.846,0.9302 -1.268,2.1459 -1.268,3.647c0,1.5011 0.422,2.7273 1.268,3.6787c0.846,0.9514 1.966,1.4271 3.362,1.4271c1.458,0 2.632,-0.6025 3.52,-1.8076l2.188,2.0296c-1.353,1.8182 -3.309,2.7273 -5.867,2.7273zm15.859,0c-2.326,0 -4.25,-0.74 -5.772,-2.2199c-1.501,-1.5011 -2.252,-3.4462 -2.252,-5.8352c0,-2.2411 0.73,-4.1333 2.189,-5.6766c1.48,-1.5646 3.34,-2.3468 5.581,-2.3468c2.262,0 4.081,0.7822 5.455,2.3468c1.395,1.5645 2.093,3.5624 2.093,5.9937l0,0.7929l-11.829,0c0.127,1.2051 0.624,2.2093 1.49,3.0127c0.867,0.8034 1.998,1.2051 3.394,1.2051c0.782,0 1.564,-0.148 2.346,-0.444c0.804,-0.296 1.47,-0.7082 1.998,-1.2368l1.523,2.1882c-1.544,1.4799 -3.616,2.2199 -6.216,2.2199zm4.059,-9.2919c-0.042,-1.0571 -0.433,-1.9979 -1.173,-2.8225c-0.719,-0.8245 -1.766,-1.2368 -3.14,-1.2368c-1.311,0 -2.336,0.4123 -3.076,1.2368c-0.74,0.8034 -1.152,1.7442 -1.237,2.8225l8.626,0z"/>
 </g>
</svg> 