<?xml version="1.0" encoding="utf-8"?>
<!-- Generator: Adobe Illustrator 20.1.0, SVG Export Plug-In . SVG Version: 6.00 Build 0)  -->
<svg version="1.1" id="Layer_1" xmlns="http://www.w3.org/2000/svg" xmlns:xlink="http://www.w3.org/1999/xlink" x="0px" y="0px"
	 viewBox="0 0 985.8 360" style="enable-background:new 0 0 985.8 360;" xml:space="preserve">
<style type="text/css">
	.st0{fill:#3181FF;}
</style>
<g>
	<g>
		<path class="st0" d="M179.6,73.2c-29.5,0-54.6,10.5-75.3,31.4c-21.1,20.8-31.4,46-31.4,75.5c0,29.2,10.3,54.4,31.4,75
			c20.6,20.8,45.8,31.4,75.3,31.4c29.2,0,54.4-10.6,75.3-31.4c20.9-20.6,31.1-45.8,31.1-75c0-29.5-10.3-54.7-31.1-75.5
			C234,83.8,208.9,73.2,179.6,73.2z M247.7,247.9c-18.9,18.7-41.7,28-68.1,28c-26.6,0-49.4-9.3-67.8-28
			c-18.9-18.7-28.3-41.5-28.3-67.8c0-26.8,9.4-49.4,28.3-68.1c18.5-18.9,41.2-28.3,67.8-28.3c26.4,0,49.1,9.3,68.1,28.3
			c18.7,18.7,27.8,41.2,27.8,68.1C275.5,206.5,266.4,229.2,247.7,247.9z M179.6,94.5c-23.5,0-43.9,8.2-60.6,24.9
			c-16.8,16.8-24.9,36.9-24.9,60.6c0,23.5,8.1,43.6,24.9,60.4c16.8,16.8,37.1,25.2,60.6,25.2c23.7,0,43.6-8.4,60.4-25.1
			c16.8-16.8,25.2-36.9,25.2-60.4c0-23.7-8.4-43.9-25.2-60.6C223.2,102.7,203.4,94.5,179.6,94.5z M254.4,183.7
			c-0.7,20.8-9.1,38.1-24.4,52c-15.6,13.9-33.6,20.4-54.2,19.2c-20.8-1.2-38.1-9.3-52-24.4c-13.7-15.6-20.1-33.5-19.2-54.4
			c1.2-20.6,9.3-37.9,24.9-51.7c15.1-13.9,33.3-20.1,54.2-19.2c20.4,1,37.6,9.4,51.5,24.7C249.1,145.1,255.6,163.1,254.4,183.7z
			 M297.1,130.5c-6.2-15.6-15.6-29-27.1-40.7c-12-11.7-25.4-20.9-40.7-27.3c-15.6-6.7-32.4-10.1-49.6-10.1
			c-17.5,0-33.8,3.3-49.8,10.1C114.7,68.9,101,78,89.3,89.8c-11.7,11.7-20.6,25.2-27.1,40.7c-7,15.6-10.1,32.1-10.1,49.6
			c0,17.3,3.1,33.8,10.1,49.6c6.5,15.1,15.3,28.7,27.1,40.5c11.7,11.8,25.4,20.9,40.5,27.3c16.1,6.7,32.4,10.1,49.8,10.1
			c17.2,0,34-3.4,49.6-10.1c15.3-6.5,28.7-15.6,40.7-27.3c11.5-11.7,20.9-25.4,27.1-40.5c6.9-15.8,10.3-32.4,10.3-49.6
			C307.4,162.6,304,146.1,297.1,130.5z M287.5,225.6c-6,13.9-14.4,26.4-25.2,37.2c-10.8,10.8-23,19.2-37.1,25.2
			c-14.4,6-29.5,9.1-45.5,9.1c-15.8,0-31.1-3.1-45.5-9.1c-14.2-6-26.4-14.4-37.4-25.2c-10.6-10.8-19.2-23.3-24.9-37.2
			c-6.2-14.6-9.1-29.7-9.1-45.5c0-16.1,2.9-31.2,9.1-45.8c5.8-13.9,14.4-26.4,24.9-37.1C107.7,86.4,120,78,134.1,72
			c14.4-6.2,29.7-9.1,45.5-9.1c16,0,31.1,2.9,45.5,9.1c14.2,6,26.4,14.4,37.1,25.2c10.8,10.8,19.2,23.2,25.2,37.1
			c6.2,14.6,9.4,29.7,9.4,45.8C296.8,195.9,293.7,211,287.5,225.6z"/>
		<path class="st0" d="M124.8,209.4c1.8,3.4,3.8,6.5,6.2,9.5V141c-9,11.2-13.6,24.2-13.6,38.9C117.4,190.8,119.8,200.8,124.8,209.4z
			 M144.9,231.7c0.1,0.1,0.2,0.1,0.3,0.2c4.2,2.8,8.9,5.2,13.6,6.8V121.1c-4.9,1.7-9.6,4.1-13.9,7V231.7z M172.9,118v123.9
			c0,0,0,0,0.1,0c2.1,0.5,4.5,0.5,6.9,0.5c2.4,0,4.8,0,6.9-0.5c0,0,0,0,0.1,0V118c-2.3-0.2-4.6-0.4-7-0.4
			C177.5,117.6,175.2,117.8,172.9,118z M201,238.8c4.9-1.7,9.4-4,13.6-6.8c0.1-0.1,0.2-0.2,0.3-0.2V128.3c-4.4-3-9-5.4-13.9-7.1
			V238.8z M228.8,141.2v77.6c2.4-2.9,4.4-6.1,6.2-9.2c4.8-8.8,7.1-18.8,7.1-29.5C242.1,165.3,237.8,152.3,228.8,141.2z"/>
		<path class="st0" d="M151.4,2.2c-6.2,1-12.4,2.3-18.3,3.9l10,37c4.8-1.3,9.6-2.3,14.6-3.1L151.4,2.2z M60.9,102.8L28.7,82.1
			c-3.4,5.3-6.6,10.7-9.5,16.4l34.1,17.4C55.7,111.3,58.2,107,60.9,102.8 M115.3,11.9c-5.9,2.3-11.6,4.8-17.2,7.7l17.5,34.1
			c4.4-2.2,8.9-4.2,13.4-6L115.3,11.9z M102.6,61.1L81.7,29c-5.3,3.4-10.4,7.1-15.3,11.1l24.1,29.7C94.4,66.8,98.4,63.8,102.6,61.1
			 M79.6,79.8L52.3,52.9c-4.4,4.4-8.5,9-12.4,13.8l29.9,24C72.8,86.9,76.1,83.3,79.6,79.8 M268.9,69.9l24.3-29.6
			c-5-4-10.2-7.8-15.6-11.3l-20.7,32.2C261.1,63.9,265.1,66.8,268.9,69.9 M261.5,19.6c-5.5-2.8-11.2-5.4-17.1-7.6l-13.8,35.7
			c4.7,1.8,9.3,3.8,13.7,6.1L261.5,19.6z M290,91l29.7-24.3c-3.9-4.9-8.2-9.5-12.6-13.9l-27.2,26.9C283.4,83.3,286.8,87,290,91
			 M306,115.7l34.1-17.5c-2.8-5.6-6-11-9.4-16.2l-32.1,20.9C301.4,107,303.8,111.3,306,115.7 M316.6,143.2l37-9.8
			c-1.6-6.2-3.6-12.2-5.8-18.1L312,129.2C313.8,133.7,315.3,138.4,316.6,143.2 M226.3,6.1c-6.1-1.6-12.2-2.9-18.5-3.9L202,40
			c5,0.8,9.9,1.8,14.6,3.1L226.3,6.1z M189.1,0.2c-6.2-0.3-12.5-0.3-18.8,0l2,38.2c5-0.3,9.9-0.2,14.8,0L189.1,0.2z M42.9,216.9
			l-37,9.8c1.6,6.1,3.5,12,5.7,17.8l35.8-13.5C45.7,226.3,44.2,221.6,42.9,216.9 M319.7,202.3l37.9,5.9c1-6.2,1.6-12.5,2-18.9
			l-38.2-2C321,192.4,320.5,197.4,319.7,202.3 M312.1,230.8l35.8,13.7c2.2-5.9,4.2-11.9,5.9-18.1l-37.1-9.7
			C315.4,221.5,313.8,226.2,312.1,230.8 M357.5,151.8l-37.8,6c0.7,4.9,1.3,9.8,1.6,14.8l0,0.1l38.2-2l0-0.1
			C359.2,164.2,358.5,158,357.5,151.8 M298.6,257.2l32.1,20.9c3.4-5.3,6.6-10.8,9.5-16.4L306,244.4
			C303.8,248.8,301.3,253.1,298.6,257.2 M279.9,280.2l27,27.1c4.5-4.5,8.7-9.2,12.7-14.1l-29.9-24
			C286.7,273.1,283.4,276.8,279.9,280.2 M257.1,298.8l20.7,32.2c5.3-3.5,10.4-7.2,15.3-11.1l-24.3-29.7
			C265.1,293.3,261.2,296.1,257.1,298.8 M47.4,129.2l-35.8-13.6c-2.2,5.8-4.2,11.7-5.8,17.8l37,9.9
			C44.1,138.5,45.7,133.8,47.4,129.2 M69.5,269l-29.7,24.2c4,4.9,8.2,9.6,12.6,14l27.2-27C76.1,276.7,72.7,273,69.5,269 M53.4,244.3
			l-34.1,17.5c2.8,5.5,5.9,10.9,9.3,16.1l32.2-20.7C58.2,253.1,55.7,248.8,53.4,244.3 M38.3,187.5l-38.2,2c0.3,6.3,1,12.4,1.9,18.4
			l37.8-6C39,197.3,38.5,192.5,38.3,187.5 M90.6,290.2l-24.2,29.7c4.9,4,10,7.7,15.3,11.1l21-32C98.5,296.2,94.5,293.3,90.6,290.2
			 M39.8,157.7l-37.9-5.9C1,158,0.3,164.2,0,170.5l38.2,2C38.5,167.5,39,162.6,39.8,157.7 M230.7,312.2l13.5,35.9
			c6-2.3,11.7-4.9,17.4-7.7l-17.4-34.1C239.8,308.5,235.3,310.5,230.7,312.2 M98,340.4c5.6,2.8,11.4,5.4,17.3,7.7l13.5-35.8
			c-4.6-1.8-9.1-3.8-13.4-6L98,340.4z M170.2,359.7c6.3,0.3,12.6,0.3,19,0l-2-38.2c-5,0.3-9.9,0.3-14.8,0L170.2,359.7z M201.9,320
			l6,37.8c6.2-1,12.4-2.3,18.4-3.9l-9.8-37C211.7,318.2,206.8,319.2,201.9,320 M133.2,353.9c6,1.6,12.1,2.9,18.3,3.9l6.1-37.8
			c-4.9-0.8-9.7-1.8-14.4-3.1L133.2,353.9z"/>
	</g>
	<g>
		<path class="st0" d="M431.6,271.6V92.5h72.5c33.1,0,57,30.3,57,59.5c0,30.5-22.5,59.5-55.8,59.5h-39v60H431.6z M466.4,181h36.9
			c12.9,0,22.5-11.4,22.5-29c0-18.4-11.6-29-24-29h-35.4V181z"/>
		<path class="st0" d="M659.6,166.6c-20.4,0.3-37.8,11.9-44.9,26.8v78.3h-33.8V139.4h31v28.3c9.3-17.9,26.7-30,40.9-30
			c3.5,0,5.3,0,6.8,0.3L659.6,166.6z"/>
		<path class="st0" d="M668.7,206.2c0-37.6,26.7-69.1,69.9-69.1c43.1,0,65.7,31.3,65.7,67.2c0,4.3-0.6,9.3-1.1,12h-98.6
			c1.8,20.7,17.4,33.1,35.1,33.1c16,0,28.6-9.8,32.9-20.6l28.5,10.8c-9.6,20.2-32.3,34.6-61.6,34.6
			C694.1,274.1,668.7,242.8,668.7,206.2z M772.7,194.4c-1.8-19.7-16.1-32.8-34.6-32.8c-18.2,0-32.5,13.1-34.1,32.8H772.7z"/>
		<path class="st0" d="M948.4,104.3c0-9.8,8.8-18.4,18.7-18.4c9.6,0,18.7,8.6,18.7,18.4c0,10.1-9.1,18.7-18.7,18.7
			C957.2,123,948.4,114.1,948.4,104.3z M950.2,271.6V139.4H984v132.2H950.2z"/>
		<polygon class="st0" points="808.9,271.6 877.3,166.5 816.2,166.5 816.2,139.3 927.3,139.3 858.8,244.3 927.8,244.3 927.8,271.6 
					"/>
	</g>
</g>
</svg>
